# xmcd
#
# Track frame offsets:
#	150
#	16123
#	27701
#	42202
#	58641
#	70779
#	85461
#	99576
#	113225
#	123962
#	141577
#	156613
#	171107
#	187147
#	203801
#	218853
#
# Disc length: 3145 seconds
#
# Revision: 1
# Processed by: cddbd v1.5.2PL0 Copyright (c) Steve Scherf et al.
# Submitted via: audiograbber 1.83.01
#
DISCID=f00c4710
DTITLE=Superstars of Country - Let Your Love Flow - Disc 2
DYEAR=2013
DGENRE=Country
TTITLE0=Ray Stevens - Everything Is Beautiful
TTITLE1=Crystal Gayle - Don't It Make My Brown Eyes Blue
TTITLE2=Bellamy Brothers - Let Your Love Flow
TTITLE3=Olivia Newton John - I Honestly Love You
TTITLE4=Charlie Rich - The Most Beautiful Girl In The World
TTITLE5=Anne Murray - Could I Have This Dance
TTITLE6=George Jones - The Grand Tour
TTITLE7=Loretta Lynn - A Coal Miner's Daughter
TTITLE8=Merle Haggard - Today I Started Loving You Again
TTITLE9=Linda Ronstadt - Blue Bayou
TTITLE10=Alabama - Love In The First Degree
TTITLE11=Dr. Hook - If Not You
TTITLE12=Willie Nelson - Always On My Mind
TTITLE13=Mary MacGregor - Torn Between Two Lovers
TTITLE14=Waylon Jennings - Luckenbach, Texas (Back To The Basics Of Love)
TTITLE15=Johnny Cash - A Boy Named Sue
EXTD=
EXTT0=
EXTT1=
EXTT2=
EXTT3=
EXTT4=
EXTT5=
EXTT6=
EXTT7=
EXTT8=
EXTT9=
EXTT10=
EXTT11=
EXTT12=
EXTT13=
EXTT14=
EXTT15=
PLAYORDER=
